<svg width="31" height="30" viewBox="0 0 31 30" fill="none" xmlns="http://www.w3.org/2000/svg">
<path fill-rule="evenodd" clip-rule="evenodd" d="M23.626 15C23.626 15.3315 23.4943 15.6495 23.2599 15.8839C23.0254 16.1183 22.7075 16.25 22.376 16.25H6.75098C6.41946 16.25 6.10151 16.1183 5.86709 15.8839C5.63267 15.6495 5.50098 15.3315 5.50098 15C5.50098 14.6685 5.63267 14.3505 5.86709 14.1161C6.10151 13.8817 6.41946 13.75 6.75098 13.75H22.376C22.7075 13.75 23.0254 13.8817 23.2599 14.1161C23.4943 14.3505 23.626 14.6685 23.626 15Z" fill="#4CAF50"/>
<path fill-rule="evenodd" clip-rule="evenodd" d="M25.501 15C25.5009 15.3315 25.3692 15.6494 25.1347 15.8838L19.5097 21.5088C19.2753 21.7433 18.9574 21.8751 18.6258 21.8753C18.2942 21.8754 17.9762 21.7438 17.7416 21.5094C17.5071 21.275 17.3752 20.957 17.3751 20.6255C17.375 20.2939 17.5066 19.9758 17.741 19.7413L22.4835 15L17.7422 10.2588C17.5078 10.0242 17.3762 9.70616 17.3763 9.37457C17.3765 9.04298 17.5083 8.72502 17.7429 8.49063C17.9774 8.25625 18.2955 8.12464 18.627 8.12476C18.9586 8.12487 19.2766 8.25671 19.511 8.49126L25.136 14.1163C25.37 14.3508 25.5012 14.6687 25.501 15Z" fill="#4CAF50"/>
</svg>
