<svg width="31" height="30" viewBox="0 0 31 30" fill="none" xmlns="http://www.w3.org/2000/svg">
<path fill-rule="evenodd" clip-rule="evenodd" d="M7.37378 15C7.37378 14.6685 7.50547 14.3505 7.7399 14.1161C7.97432 13.8817 8.29226 13.75 8.62378 13.75H24.2488C24.5803 13.75 24.8982 13.8817 25.1327 14.1161C25.3671 14.3505 25.4988 14.6685 25.4988 15C25.4988 15.3315 25.3671 15.6495 25.1327 15.8839C24.8982 16.1183 24.5803 16.25 24.2488 16.25H8.62378C8.29226 16.25 7.97432 16.1183 7.7399 15.8839C7.50547 15.6495 7.37378 15.3315 7.37378 15Z" fill="#4CAF50"/>
<path fill-rule="evenodd" clip-rule="evenodd" d="M5.49878 15C5.49885 14.6685 5.63059 14.3506 5.86503 14.1162L11.49 8.49124C11.7244 8.25669 12.0424 8.12485 12.374 8.12474C12.7056 8.12462 13.0236 8.25623 13.2582 8.49061C13.4927 8.725 13.6245 9.04296 13.6247 9.37455C13.6248 9.70614 13.4932 10.0242 13.2588 10.2587L8.51628 15L13.2575 19.7412C13.4919 19.9758 13.6235 20.2938 13.6234 20.6254C13.6233 20.957 13.4915 21.275 13.2569 21.5094C13.0224 21.7438 12.7043 21.8754 12.3727 21.8752C12.0411 21.8751 11.7232 21.7433 11.4888 21.5087L5.86378 15.8837C5.6298 15.6492 5.49852 15.3313 5.49878 15Z" fill="#4CAF50"/>
</svg>
